/* XPM */
static char * gear_xpm[] = {
"32 32 148 2",
"  	c None",
". 	c #87ACD7",
"+ 	c #E4ECF6",
"@ 	c #A2BEE0",
"# 	c #749FD1",
"$ 	c #FDFDFE",
"% 	c #88ADD7",
"& 	c #DBE6F3",
"* 	c #90B2DA",
"= 	c #79A2D2",
"- 	c #467FC1",
"; 	c #F8FAFD",
"> 	c #FCFCFE",
", 	c #EAF0F8",
"' 	c #5C8FC9",
") 	c #B4CBE6",
"! 	c #D0DEEF",
"~ 	c #98B8DD",
"{ 	c #A3BFE0",
"] 	c #B5CCE6",
"^ 	c #C0D3EA",
"/ 	c #BBD0E8",
"( 	c #ACC6E3",
"_ 	c #B2CAE5",
": 	c #CFDDEF",
"< 	c #B7CDE7",
"[ 	c #F5F8FC",
"} 	c #EEF3F9",
"| 	c #B1C9E4",
"1 	c #C4D6EB",
"2 	c #C3D5EB",
"3 	c #C7D8EC",
"4 	c #CCDBEE",
"5 	c #D9E5F2",
"6 	c #D2DFF0",
"7 	c #AEC7E3",
"8 	c #6A98CD",
"9 	c #6595CC",
"0 	c #F0F4FA",
"a 	c #DFE9F4",
"b 	c #7EA5D3",
"c 	c #91B3DA",
"d 	c #A8C2E2",
"e 	c #A9C3E2",
"f 	c #AFC8E4",
"g 	c #BED2E9",
"h 	c #C1D4EA",
"i 	c #95B6DC",
"j 	c #76A0D1",
"k 	c #A6C1E1",
"l 	c #82A8D5",
"m 	c #93B4DB",
"n 	c #719DD0",
"o 	c #EBF1F8",
"p 	c #E8EFF7",
"q 	c #9AB9DD",
"r 	c #9DBBDE",
"s 	c #A4C0E1",
"t 	c #C8D9ED",
"u 	c #A0BDDF",
"v 	c #8EB1D9",
"w 	c #7CA4D3",
"x 	c #7FA6D4",
"y 	c #85ABD6",
"z 	c #598DC8",
"A 	c #5488C6",
"B 	c #5E90C9",
"C 	c #ABC4E3",
"D 	c #97B7DC",
"E 	c #7BA3D3",
"F 	c #E2EBF5",
"G 	c #5589C6",
"H 	c #6D9ACE",
"I 	c #709CCF",
"J 	c #6192CA",
"K 	c #407BBF",
"L 	c #4880C2",
"M 	c #4981C2",
"N 	c #5186C4",
"O 	c #4E84C3",
"P 	c #4B82C3",
"Q 	c #78A1D2",
"R 	c #9CBADE",
"S 	c #588BC7",
"T 	c #DEE8F3",
"U 	c #396FAE",
"V 	c #6293CB",
"W 	c #6091CA",
"X 	c #6897CD",
"Y 	c #5287C5",
"Z 	c #437DC0",
"` 	c #376AA6",
" .	c #29507E",
"..	c #264971",
"+.	c #23446A",
"@.	c #2B5281",
"#.	c #386DAB",
"$.	c #6C99CE",
"%.	c #8BAFD8",
"&.	c #D8E4F2",
"*.	c #3C74B5",
"=.	c #578AC7",
"-.	c #3A70AF",
";.	c #1F3B5D",
">.	c #24456C",
",.	c #3C73B3",
"'.	c #8AAED8",
").	c #D3E0F0",
"!.	c #4C83C3",
"~.	c #417CC0",
"{.	c #447EC1",
"].	c #33639A",
"^.	c #6796CC",
"/.	c #CDDCEE",
"(.	c #3F79BD",
"_.	c #BCD1E9",
":.	c #3D76B8",
"<.	c #3F7ABE",
"[.	c #5B8EC8",
"}.	c #BACFE8",
"|.	c #C5D7EC",
"1.	c #84AAD6",
"2.	c #3567A0",
"3.	c #34659D",
"4.	c #8CB0D9",
"5.	c #3B72B2",
"6.	c #2D5788",
"7.	c #81A7D4",
"8.	c #D4E1F1",
"9.	c #E7EEF7",
"0.	c #9FBCDF",
"a.	c #DCE7F3",
"b.	c #E1EAF4",
"c.	c #D6E3F1",
"d.	c #739ED0",
"e.	c #386BA8",
"f.	c #E5EDF6",
"g.	c #305E93",
"h.	c #326197",
"i.	c #305D91",
"j.	c #CADAED",
"k.	c #315F94",
"l.	c #33649C",
"m.	c #316096",
"n.	c #396EAC",
"o.	c #2E588A",
"p.	c #B8CEE7",
"q.	c #6494CB",
"                                                                ",
"                            . + + .                             ",
"                  @         # $ $ #         @                   ",
"              % & $ *       = $ $ =       * $ & %               ",
"              - ; > , ' * ) ! ) ~ { ] ^ / ( _ : -               ",
"                < [ [ } [ / . | 1 2 3 4 ! 5 6 7 8         ^     ",
"                9 0 0 a b c d e ( f _ ] / g h 3 2 i   j k e     ",
"      l m     n a o p ' * * c i q r @ s e ( f _ ] g d { t u     ",
"      t + 2 v & p p j # w x l y l 8 z A B # m { s C 7 | ) D     ",
"    E F F F F F F _ G H I I j J K L M N O P N Q ~ R u u s m     ",
"      S : T T T T U V W V X Y Z `  ...+.@.#.G S $.* m m i %.    ",
"         .6 &.&.< *.A =.=.S Z -.        ;.>.,.J W j . '.'..     ",
"        M ).).).z Z P !.N ~.{.            ].^.8 I b x x b w     ",
"        l : : /.(.M {.- - K O             = = E w E Q $.V X     ",
"  D D m ) t t _.Z L ~.~.K O :.            G <.~.G z [.J $.= D   ",
"  ~ 7 }.2 |.|.< O N K K K                   <.' R _ }.h }.7 ~   ",
"  = = = = 1.v s ^.z K                       # %.s v l = = = =   ",
"  2.3.3.^.E = '.D ^.O                       4.k . Q E ^.3.3.2.  ",
"        5.E = E 3 b 9                     l d 2 b Q E 5.        ",
"        6.w E 7.8.q 4.^.                  k ^ 8.1.b w 6.        ",
"        U l l % D + f ~                 ( ).9.R v % % U         ",
"      x % l i c D _.& t < 0.        C 2 a.+ ^ R i R % v 7.      ",
"    =.E l '.i @ r s |.b.c.6 |.g ^ /.& T , 3 e @ s ~ * % 7.S     ",
"      d.% I e.k e ( | g + p F & a f.o p h < | 7 C #.# v =       ",
"      g.h.    i.< }.}.^ |.j.8.a a 8.4 3 2 g g }.k.    l.m.      ",
"                O h 4 3 /.6 8.8.c.8.8.: 4 : |.N                 ",
"                s h t c.T b.b.b.b.F F a 5 : 3 C                 ",
"              Q ^ t /.6.#.E )., , ).E n.o.).: |.E               ",
"              L _ /.8       n 9.9.n       $.8.p.P               ",
"                  q.        j 9.9.j         X                   ",
"                            E 9.9.E                             ",
"                                                                "};
